<svg xmlns="http://www.w3.org/2000/svg" viewBox="0 0 900 600" role="img" aria-label="Paisagem urbana estilizada de Belo Horizonte">
<defs>
  <linearGradient id="bg" x1="0" x2="1" y1="0" y2="1">
    <stop offset="0" stop-color="#e0f2fe"/>
    <stop offset="1" stop-color="#bae6fd"/>
  </linearGradient>
</defs>
<rect width="900" height="600" rx="40" fill="url(#bg)"/>
<circle cx="720" cy="115" r="58" fill="#facc15"/>
<path d="M0 420 L150 290 L260 390 L390 240 L520 385 L650 260 L900 420 V600 H0Z" fill="#94a3b8" opacity=".55"/>
<path d="M0 470 L180 360 L300 450 L450 320 L590 455 L760 345 L900 430 V600 H0Z" fill="#64748b" opacity=".72"/>
<rect x="85" y="315" width="85" height="210" rx="6" fill="#0f172a"/>
<rect x="188" y="255" width="118" height="270" rx="6" fill="#1e293b"/>
<rect x="328" y="350" width="90" height="175" rx="6" fill="#334155"/>
<rect x="445" y="285" width="130" height="240" rx="6" fill="#0f172a"/>
<rect x="605" y="335" width="84" height="190" rx="6" fill="#334155"/>
<rect x="714" y="230" width="105" height="295" rx="6" fill="#1e293b"/>
<g fill="#38bdf8">
  <rect x="105" y="345" width="18" height="25"/><rect x="135" y="345" width="18" height="25"/>
  <rect x="215" y="285" width="22" height="28"/><rect x="258" y="285" width="22" height="28"/>
  <rect x="476" y="315" width="24" height="30"/><rect x="520" y="315" width="24" height="30"/>
  <rect x="740" y="265" width="22" height="28"/><rect x="782" y="265" width="22" height="28"/>
</g>
<rect y="525" width="900" height="75" fill="#0f172a"/>
<text x="52" y="88" font-family="Arial, sans-serif" font-size="48" font-weight="700" fill="#0f172a">Conecta BH</text>
<text x="54" y="128" font-family="Arial, sans-serif" font-size="22" fill="#475569">cultura • sabores • experiências</text>
</svg>